<svg width="577" height="298" viewBox="0 0 577 298" fill="none" xmlns="http://www.w3.org/2000/svg">
<path d="M31.44 57.8C27.1733 57.8 23.2 57.1067 19.52 55.72C15.8933 54.28 12.72 52.28 10 49.72C7.33333 47.1067 5.25333 44.04 3.76 40.52C2.26667 37 1.52 33.16 1.52 29C1.52 24.84 2.26667 21 3.76 17.48C5.25333 13.96 7.36 10.92 10.08 8.36C12.8 5.74667 15.9733 3.74667 19.6 2.36C23.2267 0.919997 27.2 0.199997 31.52 0.199997C36.1067 0.199997 40.2933 0.999998 44.08 2.6C47.8667 4.14667 51.0667 6.46666 53.68 9.56L46.96 15.88C44.9333 13.6933 42.6667 12.0667 40.16 11C37.6533 9.88 34.9333 9.32 32 9.32C29.0667 9.32 26.3733 9.8 23.92 10.76C21.52 11.72 19.4133 13.08 17.6 14.84C15.84 16.6 14.4533 18.68 13.44 21.08C12.48 23.48 12 26.12 12 29C12 31.88 12.48 34.52 13.44 36.92C14.4533 39.32 15.84 41.4 17.6 43.16C19.4133 44.92 21.52 46.28 23.92 47.24C26.3733 48.2 29.0667 48.68 32 48.68C34.9333 48.68 37.6533 48.1467 40.16 47.08C42.6667 45.96 44.9333 44.28 46.96 42.04L53.68 48.44C51.0667 51.48 47.8667 53.8 44.08 55.4C40.2933 57 36.08 57.8 31.44 57.8ZM84.445 24.28H112.285V32.84H84.445V24.28ZM85.245 48.28H116.845V57H74.845V0.999996H115.725V9.72H85.245V48.28ZM139.639 57V0.999996H148.199L183.319 44.12H179.079V0.999996H189.399V57H180.839L145.719 13.88H149.959V57H139.639ZM226.964 57V9.8H208.404V0.999996H255.924V9.8H237.364V57H226.964ZM274.929 57V0.999996H297.969C302.929 0.999996 307.169 1.8 310.689 3.4C314.263 5 317.009 7.29333 318.929 10.28C320.849 13.2667 321.809 16.8133 321.809 20.92C321.809 25.0267 320.849 28.5733 318.929 31.56C317.009 34.4933 314.263 36.76 310.689 38.36C307.169 39.9067 302.929 40.68 297.969 40.68H280.689L285.329 35.96V57H274.929ZM311.569 57L297.409 36.68H308.529L322.769 57H311.569ZM285.329 37.08L280.689 32.12H297.489C302.076 32.12 305.516 31.1333 307.809 29.16C310.156 27.1867 311.329 24.44 311.329 20.92C311.329 17.3467 310.156 14.6 307.809 12.68C305.516 10.76 302.076 9.8 297.489 9.8H280.689L285.329 4.68V37.08ZM370.885 57.8C366.512 57.8 362.485 57.08 358.805 55.64C355.125 54.2 351.925 52.2 349.205 49.64C346.485 47.0267 344.378 43.9867 342.885 40.52C341.392 37 340.645 33.16 340.645 29C340.645 24.84 341.392 21.0267 342.885 17.56C344.378 14.04 346.485 11 349.205 8.44C351.925 5.82666 355.125 3.8 358.805 2.36C362.485 0.919997 366.485 0.199997 370.805 0.199997C375.178 0.199997 379.178 0.919997 382.805 2.36C386.485 3.8 389.685 5.82666 392.405 8.44C395.125 11 397.232 14.04 398.725 17.56C400.218 21.0267 400.965 24.84 400.965 29C400.965 33.16 400.218 37 398.725 40.52C397.232 44.04 395.125 47.08 392.405 49.64C389.685 52.2 386.485 54.2 382.805 55.64C379.178 57.08 375.205 57.8 370.885 57.8ZM370.805 48.68C373.632 48.68 376.245 48.2 378.645 47.24C381.045 46.28 383.125 44.92 384.885 43.16C386.645 41.3467 388.005 39.2667 388.965 36.92C389.978 34.52 390.485 31.88 390.485 29C390.485 26.12 389.978 23.5067 388.965 21.16C388.005 18.76 386.645 16.68 384.885 14.92C383.125 13.1067 381.045 11.72 378.645 10.76C376.245 9.8 373.632 9.32 370.805 9.32C367.978 9.32 365.365 9.8 362.965 10.76C360.618 11.72 358.538 13.1067 356.725 14.92C354.965 16.68 353.578 18.76 352.565 21.16C351.605 23.5067 351.125 26.12 351.125 29C351.125 31.8267 351.605 34.44 352.565 36.84C353.578 39.24 354.965 41.3467 356.725 43.16C358.485 44.92 360.565 46.28 362.965 47.24C365.365 48.2 367.978 48.68 370.805 48.68ZM31.44 137.8C27.1733 137.8 23.2 137.107 19.52 135.72C15.8933 134.28 12.72 132.28 10 129.72C7.33333 127.107 5.25333 124.04 3.76 120.52C2.26667 117 1.52 113.16 1.52 109C1.52 104.84 2.26667 101 3.76 97.48C5.25333 93.96 7.36 90.92 10.08 88.36C12.8 85.7467 15.9733 83.7467 19.6 82.36C23.2267 80.92 27.2 80.2 31.52 80.2C36.1067 80.2 40.2933 81 44.08 82.6C47.8667 84.1467 51.0667 86.4667 53.68 89.56L46.96 95.88C44.9333 93.6933 42.6667 92.0667 40.16 91C37.6533 89.88 34.9333 89.32 32 89.32C29.0667 89.32 26.3733 89.8 23.92 90.76C21.52 91.72 19.4133 93.08 17.6 94.84C15.84 96.6 14.4533 98.68 13.44 101.08C12.48 103.48 12 106.12 12 109C12 111.88 12.48 114.52 13.44 116.92C14.4533 119.32 15.84 121.4 17.6 123.16C19.4133 124.92 21.52 126.28 23.92 127.24C26.3733 128.2 29.0667 128.68 32 128.68C34.9333 128.68 37.6533 128.147 40.16 127.08C42.6667 125.96 44.9333 124.28 46.96 122.04L53.68 128.44C51.0667 131.48 47.8667 133.8 44.08 135.4C40.2933 137 36.08 137.8 31.44 137.8ZM98.8469 137.8C91.1669 137.8 85.1402 135.64 80.7669 131.32C76.4469 127 74.2869 120.76 74.2869 112.6V81H84.6869V112.2C84.6869 117.96 85.9135 122.147 88.3669 124.76C90.8735 127.373 94.3935 128.68 98.9269 128.68C103.46 128.68 106.954 127.373 109.407 124.76C111.86 122.147 113.087 117.96 113.087 112.2V81H123.327V112.6C123.327 120.76 121.14 127 116.767 131.32C112.447 135.64 106.474 137.8 98.8469 137.8ZM149.092 137V81H159.492V128.2H188.772V137H149.092ZM214.308 137V89.8H195.748V81H243.268V89.8H224.708V137H214.308ZM285.338 137.8C277.658 137.8 271.631 135.64 267.258 131.32C262.938 127 260.778 120.76 260.778 112.6V81H271.178V112.2C271.178 117.96 272.404 122.147 274.858 124.76C277.364 127.373 280.884 128.68 285.418 128.68C289.951 128.68 293.444 127.373 295.898 124.76C298.351 122.147 299.578 117.96 299.578 112.2V81H309.818V112.6C309.818 120.76 307.631 127 303.258 131.32C298.938 135.64 292.964 137.8 285.338 137.8ZM335.583 137V81H358.623C363.583 81 367.823 81.8 371.343 83.4C374.916 85 377.663 87.2933 379.583 90.28C381.503 93.2667 382.463 96.8133 382.463 100.92C382.463 105.027 381.503 108.573 379.583 111.56C377.663 114.493 374.916 116.76 371.343 118.36C367.823 119.907 363.583 120.68 358.623 120.68H341.343L345.983 115.96V137H335.583ZM372.223 137L358.063 116.68H369.182L383.423 137H372.223ZM345.983 117.08L341.343 112.12H358.143C362.729 112.12 366.169 111.133 368.462 109.16C370.809 107.187 371.983 104.44 371.983 100.92C371.983 97.3467 370.809 94.6 368.462 92.68C366.169 90.76 362.729 89.8 358.143 89.8H341.343L345.983 84.68V117.08ZM397.378 137L422.578 81H432.818L458.098 137H447.218L425.538 86.52H429.698L408.098 137H397.378ZM408.978 124.04L411.778 115.88H442.018L444.818 124.04H408.978ZM476.42 137V81H486.82V128.2H516.1V137H476.42ZM22.88 217.8C18.5067 217.8 14.32 217.187 10.32 215.96C6.32 214.68 3.14667 213.053 0.8 211.08L4.4 203C6.64 204.76 9.41333 206.227 12.72 207.4C16.0267 208.573 19.4133 209.16 22.88 209.16C25.8133 209.16 28.1867 208.84 30 208.2C31.8133 207.56 33.1467 206.707 34 205.64C34.8533 204.52 35.28 203.267 35.28 201.88C35.28 200.173 34.6667 198.813 33.44 197.8C32.2133 196.733 30.6133 195.907 28.64 195.32C26.72 194.68 24.56 194.093 22.16 193.56C19.8133 193.027 17.44 192.413 15.04 191.72C12.6933 190.973 10.5333 190.04 8.56 188.92C6.64 187.747 5.06667 186.2 3.84 184.28C2.61333 182.36 2 179.907 2 176.92C2 173.88 2.8 171.107 4.4 168.6C6.05333 166.04 8.53333 164.013 11.84 162.52C15.2 160.973 19.44 160.2 24.56 160.2C27.92 160.2 31.2533 160.627 34.56 161.48C37.8667 162.333 40.7467 163.56 43.2 165.16L39.92 173.24C37.4133 171.747 34.8267 170.653 32.16 169.96C29.4933 169.213 26.9333 168.84 24.48 168.84C21.6 168.84 19.2533 169.187 17.44 169.88C15.68 170.573 14.3733 171.48 13.52 172.6C12.72 173.72 12.32 175 12.32 176.44C12.32 178.147 12.9067 179.533 14.08 180.6C15.3067 181.613 16.88 182.413 18.8 183C20.7733 183.587 22.96 184.173 25.36 184.76C27.76 185.293 30.1333 185.907 32.48 186.6C34.88 187.293 37.04 188.2 38.96 189.32C40.9333 190.44 42.5067 191.96 43.68 193.88C44.9067 195.8 45.52 198.227 45.52 201.16C45.52 204.147 44.6933 206.92 43.04 209.48C41.44 211.987 38.96 214.013 35.6 215.56C32.24 217.053 28 217.8 22.88 217.8ZM59.1125 217L84.3125 161H94.5525L119.833 217H108.953L87.2725 166.52H91.4325L69.8325 217H59.1125ZM70.7125 204.04L73.5125 195.88H103.753L106.553 204.04H70.7125ZM95.1925 156.44C93.9125 156.44 92.7392 156.2 91.6725 155.72C90.6592 155.187 89.7258 154.573 88.8725 153.88C88.0725 153.133 87.2992 152.493 86.5525 151.96C85.8058 151.427 85.0592 151.16 84.3125 151.16C83.1925 151.16 82.2858 151.587 81.5925 152.44C80.8992 153.293 80.4992 154.467 80.3925 155.96H75.0325C75.1392 152.653 75.9392 150.04 77.4325 148.12C78.9792 146.2 81.0592 145.24 83.6725 145.24C84.9525 145.24 86.1258 145.507 87.1925 146.04C88.2592 146.573 89.1925 147.187 89.9925 147.88C90.8458 148.573 91.6458 149.187 92.3925 149.72C93.1392 150.253 93.8592 150.52 94.5525 150.52C95.6725 150.52 96.5792 150.12 97.2725 149.32C98.0192 148.52 98.4192 147.4 98.4725 145.96H103.833C103.779 149.053 102.979 151.587 101.433 153.56C99.8858 155.48 97.8058 156.44 95.1925 156.44ZM163.613 217.8C159.24 217.8 155.213 217.08 151.533 215.64C147.853 214.2 144.653 212.2 141.933 209.64C139.213 207.027 137.106 203.987 135.613 200.52C134.12 197 133.373 193.16 133.373 189C133.373 184.84 134.12 181.027 135.613 177.56C137.106 174.04 139.213 171 141.933 168.44C144.653 165.827 147.853 163.8 151.533 162.36C155.213 160.92 159.213 160.2 163.533 160.2C167.906 160.2 171.906 160.92 175.533 162.36C179.213 163.8 182.413 165.827 185.133 168.44C187.853 171 189.96 174.04 191.453 177.56C192.946 181.027 193.693 184.84 193.693 189C193.693 193.16 192.946 197 191.453 200.52C189.96 204.04 187.853 207.08 185.133 209.64C182.413 212.2 179.213 214.2 175.533 215.64C171.906 217.08 167.933 217.8 163.613 217.8ZM163.533 208.68C166.36 208.68 168.973 208.2 171.373 207.24C173.773 206.28 175.853 204.92 177.613 203.16C179.373 201.347 180.733 199.267 181.693 196.92C182.706 194.52 183.213 191.88 183.213 189C183.213 186.12 182.706 183.507 181.693 181.16C180.733 178.76 179.373 176.68 177.613 174.92C175.853 173.107 173.773 171.72 171.373 170.76C168.973 169.8 166.36 169.32 163.533 169.32C160.706 169.32 158.093 169.8 155.693 170.76C153.346 171.72 151.266 173.107 149.453 174.92C147.693 176.68 146.306 178.76 145.293 181.16C144.333 183.507 143.853 186.12 143.853 189C143.853 191.827 144.333 194.44 145.293 196.84C146.306 199.24 147.693 201.347 149.453 203.16C151.213 204.92 153.293 206.28 155.693 207.24C158.093 208.2 160.706 208.68 163.533 208.68ZM15.04 266.76H42.96V275.56H15.04V266.76ZM15.92 297H5.52V241H46.4V249.72H15.92V297ZM67.6575 297V241H90.6975C95.6575 241 99.8975 241.8 103.418 243.4C106.991 245 109.738 247.293 111.658 250.28C113.578 253.267 114.538 256.813 114.538 260.92C114.538 265.027 113.578 268.573 111.658 271.56C109.738 274.493 106.991 276.76 103.418 278.36C99.8975 279.907 95.6575 280.68 90.6975 280.68H73.4175L78.0575 275.96V297H67.6575ZM104.298 297L90.1375 276.68H101.258L115.498 297H104.298ZM78.0575 277.08L73.4175 272.12H90.2175C94.8042 272.12 98.2442 271.133 100.538 269.16C102.884 267.187 104.058 264.44 104.058 260.92C104.058 257.347 102.884 254.6 100.538 252.68C98.2442 250.76 94.8042 249.8 90.2175 249.8H73.4175L78.0575 244.68V277.08ZM129.453 297L154.653 241H164.893L190.173 297H179.293L157.613 246.52H161.773L140.173 297H129.453ZM141.053 284.04L143.853 275.88H174.093L176.893 284.04H141.053ZM208.495 297V241H217.055L252.175 284.12H247.935V241H258.255V297H249.695L214.575 253.88H218.815V297H208.495ZM310.381 297.8C306.114 297.8 302.141 297.107 298.461 295.72C294.834 294.28 291.661 292.28 288.941 289.72C286.274 287.107 284.194 284.04 282.701 280.52C281.207 277 280.461 273.16 280.461 269C280.461 264.84 281.207 261 282.701 257.48C284.194 253.96 286.301 250.92 289.021 248.36C291.741 245.747 294.914 243.747 298.541 242.36C302.167 240.92 306.141 240.2 310.461 240.2C315.047 240.2 319.234 241 323.021 242.6C326.807 244.147 330.007 246.467 332.621 249.56L325.901 255.88C323.874 253.693 321.607 252.067 319.101 251C316.594 249.88 313.874 249.32 310.941 249.32C308.007 249.32 305.314 249.8 302.861 250.76C300.461 251.72 298.354 253.08 296.541 254.84C294.781 256.6 293.394 258.68 292.381 261.08C291.421 263.48 290.941 266.12 290.941 269C290.941 271.88 291.421 274.52 292.381 276.92C293.394 279.32 294.781 281.4 296.541 283.16C298.354 284.92 300.461 286.28 302.861 287.24C305.314 288.2 308.007 288.68 310.941 288.68C313.874 288.68 316.594 288.147 319.101 287.08C321.607 285.96 323.874 284.28 325.901 282.04L332.621 288.44C330.007 291.48 326.807 293.8 323.021 295.4C319.234 297 315.021 297.8 310.381 297.8ZM353.786 297V241H364.186V297H353.786ZM407.893 297.8C403.519 297.8 399.333 297.187 395.333 295.96C391.333 294.68 388.159 293.053 385.813 291.08L389.413 283C391.653 284.76 394.426 286.227 397.733 287.4C401.039 288.573 404.426 289.16 407.893 289.16C410.826 289.16 413.199 288.84 415.013 288.2C416.826 287.56 418.159 286.707 419.013 285.64C419.866 284.52 420.293 283.267 420.293 281.88C420.293 280.173 419.679 278.813 418.453 277.8C417.226 276.733 415.626 275.907 413.653 275.32C411.733 274.68 409.573 274.093 407.173 273.56C404.826 273.027 402.453 272.413 400.053 271.72C397.706 270.973 395.546 270.04 393.573 268.92C391.653 267.747 390.079 266.2 388.853 264.28C387.626 262.36 387.013 259.907 387.013 256.92C387.013 253.88 387.813 251.107 389.413 248.6C391.066 246.04 393.546 244.013 396.853 242.52C400.213 240.973 404.453 240.2 409.573 240.2C412.933 240.2 416.266 240.627 419.573 241.48C422.879 242.333 425.759 243.56 428.213 245.16L424.933 253.24C422.426 251.747 419.839 250.653 417.173 249.96C414.506 249.213 411.946 248.84 409.493 248.84C406.613 248.84 404.266 249.187 402.453 249.88C400.693 250.573 399.386 251.48 398.533 252.6C397.733 253.72 397.333 255 397.333 256.44C397.333 258.147 397.919 259.533 399.093 260.6C400.319 261.613 401.893 262.413 403.813 263C405.786 263.587 407.973 264.173 410.373 264.76C412.773 265.293 415.146 265.907 417.493 266.6C419.893 267.293 422.053 268.2 423.973 269.32C425.946 270.44 427.519 271.96 428.693 273.88C429.919 275.8 430.533 278.227 430.533 281.16C430.533 284.147 429.706 286.92 428.053 289.48C426.453 291.987 423.973 294.013 420.613 295.56C417.253 297.053 413.013 297.8 407.893 297.8ZM477.965 297.8C473.698 297.8 469.725 297.107 466.045 295.72C462.418 294.28 459.245 292.28 456.525 289.72C453.858 287.107 451.778 284.04 450.285 280.52C448.792 277 448.045 273.16 448.045 269C448.045 264.84 448.792 261 450.285 257.48C451.778 253.96 453.885 250.92 456.605 248.36C459.325 245.747 462.498 243.747 466.125 242.36C469.752 240.92 473.725 240.2 478.045 240.2C482.632 240.2 486.818 241 490.605 242.6C494.392 244.147 497.592 246.467 500.205 249.56L493.485 255.88C491.458 253.693 489.192 252.067 486.685 251C484.178 249.88 481.458 249.32 478.525 249.32C475.592 249.32 472.898 249.8 470.445 250.76C468.045 251.72 465.938 253.08 464.125 254.84C462.365 256.6 460.978 258.68 459.965 261.08C459.005 263.48 458.525 266.12 458.525 269C458.525 271.88 459.005 274.52 459.965 276.92C460.978 279.32 462.365 281.4 464.125 283.16C465.938 284.92 468.045 286.28 470.445 287.24C472.898 288.2 475.592 288.68 478.525 288.68C481.458 288.68 484.178 288.147 486.685 287.08C489.192 285.96 491.458 284.28 493.485 282.04L500.205 288.44C497.592 291.48 494.392 293.8 490.605 295.4C486.818 297 482.605 297.8 477.965 297.8ZM546.438 297.8C542.065 297.8 538.038 297.08 534.358 295.64C530.678 294.2 527.478 292.2 524.758 289.64C522.038 287.027 519.931 283.987 518.438 280.52C516.945 277 516.198 273.16 516.198 269C516.198 264.84 516.945 261.027 518.438 257.56C519.931 254.04 522.038 251 524.758 248.44C527.478 245.827 530.678 243.8 534.358 242.36C538.038 240.92 542.038 240.2 546.358 240.2C550.731 240.2 554.731 240.92 558.358 242.36C562.038 243.8 565.238 245.827 567.958 248.44C570.678 251 572.785 254.04 574.278 257.56C575.771 261.027 576.518 264.84 576.518 269C576.518 273.16 575.771 277 574.278 280.52C572.785 284.04 570.678 287.08 567.958 289.64C565.238 292.2 562.038 294.2 558.358 295.64C554.731 297.08 550.758 297.8 546.438 297.8ZM546.358 288.68C549.185 288.68 551.798 288.2 554.198 287.24C556.598 286.28 558.678 284.92 560.438 283.16C562.198 281.347 563.558 279.267 564.518 276.92C565.531 274.52 566.038 271.88 566.038 269C566.038 266.12 565.531 263.507 564.518 261.16C563.558 258.76 562.198 256.68 560.438 254.92C558.678 253.107 556.598 251.72 554.198 250.76C551.798 249.8 549.185 249.32 546.358 249.32C543.531 249.32 540.918 249.8 538.518 250.76C536.171 251.72 534.091 253.107 532.278 254.92C530.518 256.68 529.131 258.76 528.118 261.16C527.158 263.507 526.678 266.12 526.678 269C526.678 271.827 527.158 274.44 528.118 276.84C529.131 279.24 530.518 281.347 532.278 283.16C534.038 284.92 536.118 286.28 538.518 287.24C540.918 288.2 543.531 288.68 546.358 288.68Z" fill="#B37132"/>
<path d="M31.44 57.8C27.1733 57.8 23.2 57.1067 19.52 55.72C15.8933 54.28 12.72 52.28 10 49.72C7.33333 47.1067 5.25333 44.04 3.76 40.52C2.26667 37 1.52 33.16 1.52 29C1.52 24.84 2.26667 21 3.76 17.48C5.25333 13.96 7.36 10.92 10.08 8.36C12.8 5.74667 15.9733 3.74667 19.6 2.36C23.2267 0.919997 27.2 0.199997 31.52 0.199997C36.1067 0.199997 40.2933 0.999998 44.08 2.6C47.8667 4.14667 51.0667 6.46666 53.68 9.56L46.96 15.88C44.9333 13.6933 42.6667 12.0667 40.16 11C37.6533 9.88 34.9333 9.32 32 9.32C29.0667 9.32 26.3733 9.8 23.92 10.76C21.52 11.72 19.4133 13.08 17.6 14.84C15.84 16.6 14.4533 18.68 13.44 21.08C12.48 23.48 12 26.12 12 29C12 31.88 12.48 34.52 13.44 36.92C14.4533 39.32 15.84 41.4 17.6 43.16C19.4133 44.92 21.52 46.28 23.92 47.24C26.3733 48.2 29.0667 48.68 32 48.68C34.9333 48.68 37.6533 48.1467 40.16 47.08C42.6667 45.96 44.9333 44.28 46.96 42.04L53.68 48.44C51.0667 51.48 47.8667 53.8 44.08 55.4C40.2933 57 36.08 57.8 31.44 57.8ZM84.445 24.28H112.285V32.84H84.445V24.28ZM85.245 48.28H116.845V57H74.845V0.999996H115.725V9.72H85.245V48.28ZM139.639 57V0.999996H148.199L183.319 44.12H179.079V0.999996H189.399V57H180.839L145.719 13.88H149.959V57H139.639ZM226.964 57V9.8H208.404V0.999996H255.924V9.8H237.364V57H226.964ZM274.929 57V0.999996H297.969C302.929 0.999996 307.169 1.8 310.689 3.4C314.263 5 317.009 7.29333 318.929 10.28C320.849 13.2667 321.809 16.8133 321.809 20.92C321.809 25.0267 320.849 28.5733 318.929 31.56C317.009 34.4933 314.263 36.76 310.689 38.36C307.169 39.9067 302.929 40.68 297.969 40.68H280.689L285.329 35.96V57H274.929ZM311.569 57L297.409 36.68H308.529L322.769 57H311.569ZM285.329 37.08L280.689 32.12H297.489C302.076 32.12 305.516 31.1333 307.809 29.16C310.156 27.1867 311.329 24.44 311.329 20.92C311.329 17.3467 310.156 14.6 307.809 12.68C305.516 10.76 302.076 9.8 297.489 9.8H280.689L285.329 4.68V37.08ZM370.885 57.8C366.512 57.8 362.485 57.08 358.805 55.64C355.125 54.2 351.925 52.2 349.205 49.64C346.485 47.0267 344.378 43.9867 342.885 40.52C341.392 37 340.645 33.16 340.645 29C340.645 24.84 341.392 21.0267 342.885 17.56C344.378 14.04 346.485 11 349.205 8.44C351.925 5.82666 355.125 3.8 358.805 2.36C362.485 0.919997 366.485 0.199997 370.805 0.199997C375.178 0.199997 379.178 0.919997 382.805 2.36C386.485 3.8 389.685 5.82666 392.405 8.44C395.125 11 397.232 14.04 398.725 17.56C400.218 21.0267 400.965 24.84 400.965 29C400.965 33.16 400.218 37 398.725 40.52C397.232 44.04 395.125 47.08 392.405 49.64C389.685 52.2 386.485 54.2 382.805 55.64C379.178 57.08 375.205 57.8 370.885 57.8ZM370.805 48.68C373.632 48.68 376.245 48.2 378.645 47.24C381.045 46.28 383.125 44.92 384.885 43.16C386.645 41.3467 388.005 39.2667 388.965 36.92C389.978 34.52 390.485 31.88 390.485 29C390.485 26.12 389.978 23.5067 388.965 21.16C388.005 18.76 386.645 16.68 384.885 14.92C383.125 13.1067 381.045 11.72 378.645 10.76C376.245 9.8 373.632 9.32 370.805 9.32C367.978 9.32 365.365 9.8 362.965 10.76C360.618 11.72 358.538 13.1067 356.725 14.92C354.965 16.68 353.578 18.76 352.565 21.16C351.605 23.5067 351.125 26.12 351.125 29C351.125 31.8267 351.605 34.44 352.565 36.84C353.578 39.24 354.965 41.3467 356.725 43.16C358.485 44.92 360.565 46.28 362.965 47.24C365.365 48.2 367.978 48.68 370.805 48.68ZM31.44 137.8C27.1733 137.8 23.2 137.107 19.52 135.72C15.8933 134.28 12.72 132.28 10 129.72C7.33333 127.107 5.25333 124.04 3.76 120.52C2.26667 117 1.52 113.16 1.52 109C1.52 104.84 2.26667 101 3.76 97.48C5.25333 93.96 7.36 90.92 10.08 88.36C12.8 85.7467 15.9733 83.7467 19.6 82.36C23.2267 80.92 27.2 80.2 31.52 80.2C36.1067 80.2 40.2933 81 44.08 82.6C47.8667 84.1467 51.0667 86.4667 53.68 89.56L46.96 95.88C44.9333 93.6933 42.6667 92.0667 40.16 91C37.6533 89.88 34.9333 89.32 32 89.32C29.0667 89.32 26.3733 89.8 23.92 90.76C21.52 91.72 19.4133 93.08 17.6 94.84C15.84 96.6 14.4533 98.68 13.44 101.08C12.48 103.48 12 106.12 12 109C12 111.88 12.48 114.52 13.44 116.92C14.4533 119.32 15.84 121.4 17.6 123.16C19.4133 124.92 21.52 126.28 23.92 127.24C26.3733 128.2 29.0667 128.68 32 128.68C34.9333 128.68 37.6533 128.147 40.16 127.08C42.6667 125.96 44.9333 124.28 46.96 122.04L53.68 128.44C51.0667 131.48 47.8667 133.8 44.08 135.4C40.2933 137 36.08 137.8 31.44 137.8ZM98.8469 137.8C91.1669 137.8 85.1402 135.64 80.7669 131.32C76.4469 127 74.2869 120.76 74.2869 112.6V81H84.6869V112.2C84.6869 117.96 85.9135 122.147 88.3669 124.76C90.8735 127.373 94.3935 128.68 98.9269 128.68C103.46 128.68 106.954 127.373 109.407 124.76C111.86 122.147 113.087 117.96 113.087 112.2V81H123.327V112.6C123.327 120.76 121.14 127 116.767 131.32C112.447 135.64 106.474 137.8 98.8469 137.8ZM149.092 137V81H159.492V128.2H188.772V137H149.092ZM214.308 137V89.8H195.748V81H243.268V89.8H224.708V137H214.308ZM285.338 137.8C277.658 137.8 271.631 135.64 267.258 131.32C262.938 127 260.778 120.76 260.778 112.6V81H271.178V112.2C271.178 117.96 272.404 122.147 274.858 124.76C277.364 127.373 280.884 128.68 285.418 128.68C289.951 128.68 293.444 127.373 295.898 124.76C298.351 122.147 299.578 117.96 299.578 112.2V81H309.818V112.6C309.818 120.76 307.631 127 303.258 131.32C298.938 135.64 292.964 137.8 285.338 137.8ZM335.583 137V81H358.623C363.583 81 367.823 81.8 371.343 83.4C374.916 85 377.663 87.2933 379.583 90.28C381.503 93.2667 382.463 96.8133 382.463 100.92C382.463 105.027 381.503 108.573 379.583 111.56C377.663 114.493 374.916 116.76 371.343 118.36C367.823 119.907 363.583 120.68 358.623 120.68H341.343L345.983 115.96V137H335.583ZM372.223 137L358.063 116.68H369.182L383.423 137H372.223ZM345.983 117.08L341.343 112.12H358.143C362.729 112.12 366.169 111.133 368.462 109.16C370.809 107.187 371.983 104.44 371.983 100.92C371.983 97.3467 370.809 94.6 368.462 92.68C366.169 90.76 362.729 89.8 358.143 89.8H341.343L345.983 84.68V117.08ZM397.378 137L422.578 81H432.818L458.098 137H447.218L425.538 86.52H429.698L408.098 137H397.378ZM408.978 124.04L411.778 115.88H442.018L444.818 124.04H408.978ZM476.42 137V81H486.82V128.2H516.1V137H476.42ZM22.88 217.8C18.5067 217.8 14.32 217.187 10.32 215.96C6.32 214.68 3.14667 213.053 0.8 211.08L4.4 203C6.64 204.76 9.41333 206.227 12.72 207.4C16.0267 208.573 19.4133 209.16 22.88 209.16C25.8133 209.16 28.1867 208.84 30 208.2C31.8133 207.56 33.1467 206.707 34 205.64C34.8533 204.52 35.28 203.267 35.28 201.88C35.28 200.173 34.6667 198.813 33.44 197.8C32.2133 196.733 30.6133 195.907 28.64 195.32C26.72 194.68 24.56 194.093 22.16 193.56C19.8133 193.027 17.44 192.413 15.04 191.72C12.6933 190.973 10.5333 190.04 8.56 188.92C6.64 187.747 5.06667 186.2 3.84 184.28C2.61333 182.36 2 179.907 2 176.92C2 173.88 2.8 171.107 4.4 168.6C6.05333 166.04 8.53333 164.013 11.84 162.52C15.2 160.973 19.44 160.2 24.56 160.2C27.92 160.2 31.2533 160.627 34.56 161.48C37.8667 162.333 40.7467 163.56 43.2 165.16L39.92 173.24C37.4133 171.747 34.8267 170.653 32.16 169.96C29.4933 169.213 26.9333 168.84 24.48 168.84C21.6 168.84 19.2533 169.187 17.44 169.88C15.68 170.573 14.3733 171.48 13.52 172.6C12.72 173.72 12.32 175 12.32 176.44C12.32 178.147 12.9067 179.533 14.08 180.6C15.3067 181.613 16.88 182.413 18.8 183C20.7733 183.587 22.96 184.173 25.36 184.76C27.76 185.293 30.1333 185.907 32.48 186.6C34.88 187.293 37.04 188.2 38.96 189.32C40.9333 190.44 42.5067 191.96 43.68 193.88C44.9067 195.8 45.52 198.227 45.52 201.16C45.52 204.147 44.6933 206.92 43.04 209.48C41.44 211.987 38.96 214.013 35.6 215.56C32.24 217.053 28 217.8 22.88 217.8ZM59.1125 217L84.3125 161H94.5525L119.833 217H108.953L87.2725 166.52H91.4325L69.8325 217H59.1125ZM70.7125 204.04L73.5125 195.88H103.753L106.553 204.04H70.7125ZM95.1925 156.44C93.9125 156.44 92.7392 156.2 91.6725 155.72C90.6592 155.187 89.7258 154.573 88.8725 153.88C88.0725 153.133 87.2992 152.493 86.5525 151.96C85.8058 151.427 85.0592 151.16 84.3125 151.16C83.1925 151.16 82.2858 151.587 81.5925 152.44C80.8992 153.293 80.4992 154.467 80.3925 155.96H75.0325C75.1392 152.653 75.9392 150.04 77.4325 148.12C78.9792 146.2 81.0592 145.24 83.6725 145.24C84.9525 145.24 86.1258 145.507 87.1925 146.04C88.2592 146.573 89.1925 147.187 89.9925 147.88C90.8458 148.573 91.6458 149.187 92.3925 149.72C93.1392 150.253 93.8592 150.52 94.5525 150.52C95.6725 150.52 96.5792 150.12 97.2725 149.32C98.0192 148.52 98.4192 147.4 98.4725 145.96H103.833C103.779 149.053 102.979 151.587 101.433 153.56C99.8858 155.48 97.8058 156.44 95.1925 156.44ZM163.613 217.8C159.24 217.8 155.213 217.08 151.533 215.64C147.853 214.2 144.653 212.2 141.933 209.64C139.213 207.027 137.106 203.987 135.613 200.52C134.12 197 133.373 193.16 133.373 189C133.373 184.84 134.12 181.027 135.613 177.56C137.106 174.04 139.213 171 141.933 168.44C144.653 165.827 147.853 163.8 151.533 162.36C155.213 160.92 159.213 160.2 163.533 160.2C167.906 160.2 171.906 160.92 175.533 162.36C179.213 163.8 182.413 165.827 185.133 168.44C187.853 171 189.96 174.04 191.453 177.56C192.946 181.027 193.693 184.84 193.693 189C193.693 193.16 192.946 197 191.453 200.52C189.96 204.04 187.853 207.08 185.133 209.64C182.413 212.2 179.213 214.2 175.533 215.64C171.906 217.08 167.933 217.8 163.613 217.8ZM163.533 208.68C166.36 208.68 168.973 208.2 171.373 207.24C173.773 206.28 175.853 204.92 177.613 203.16C179.373 201.347 180.733 199.267 181.693 196.92C182.706 194.52 183.213 191.88 183.213 189C183.213 186.12 182.706 183.507 181.693 181.16C180.733 178.76 179.373 176.68 177.613 174.92C175.853 173.107 173.773 171.72 171.373 170.76C168.973 169.8 166.36 169.32 163.533 169.32C160.706 169.32 158.093 169.8 155.693 170.76C153.346 171.72 151.266 173.107 149.453 174.92C147.693 176.68 146.306 178.76 145.293 181.16C144.333 183.507 143.853 186.12 143.853 189C143.853 191.827 144.333 194.44 145.293 196.84C146.306 199.24 147.693 201.347 149.453 203.16C151.213 204.92 153.293 206.28 155.693 207.24C158.093 208.2 160.706 208.68 163.533 208.68ZM15.04 266.76H42.96V275.56H15.04V266.76ZM15.92 297H5.52V241H46.4V249.72H15.92V297ZM67.6575 297V241H90.6975C95.6575 241 99.8975 241.8 103.418 243.4C106.991 245 109.738 247.293 111.658 250.28C113.578 253.267 114.538 256.813 114.538 260.92C114.538 265.027 113.578 268.573 111.658 271.56C109.738 274.493 106.991 276.76 103.418 278.36C99.8975 279.907 95.6575 280.68 90.6975 280.68H73.4175L78.0575 275.96V297H67.6575ZM104.298 297L90.1375 276.68H101.258L115.498 297H104.298ZM78.0575 277.08L73.4175 272.12H90.2175C94.8042 272.12 98.2442 271.133 100.538 269.16C102.884 267.187 104.058 264.44 104.058 260.92C104.058 257.347 102.884 254.6 100.538 252.68C98.2442 250.76 94.8042 249.8 90.2175 249.8H73.4175L78.0575 244.68V277.08ZM129.453 297L154.653 241H164.893L190.173 297H179.293L157.613 246.52H161.773L140.173 297H129.453ZM141.053 284.04L143.853 275.88H174.093L176.893 284.04H141.053ZM208.495 297V241H217.055L252.175 284.12H247.935V241H258.255V297H249.695L214.575 253.88H218.815V297H208.495ZM310.381 297.8C306.114 297.8 302.141 297.107 298.461 295.72C294.834 294.28 291.661 292.28 288.941 289.72C286.274 287.107 284.194 284.04 282.701 280.52C281.207 277 280.461 273.16 280.461 269C280.461 264.84 281.207 261 282.701 257.48C284.194 253.96 286.301 250.92 289.021 248.36C291.741 245.747 294.914 243.747 298.541 242.36C302.167 240.92 306.141 240.2 310.461 240.2C315.047 240.2 319.234 241 323.021 242.6C326.807 244.147 330.007 246.467 332.621 249.56L325.901 255.88C323.874 253.693 321.607 252.067 319.101 251C316.594 249.88 313.874 249.32 310.941 249.32C308.007 249.32 305.314 249.8 302.861 250.76C300.461 251.72 298.354 253.08 296.541 254.84C294.781 256.6 293.394 258.68 292.381 261.08C291.421 263.48 290.941 266.12 290.941 269C290.941 271.88 291.421 274.52 292.381 276.92C293.394 279.32 294.781 281.4 296.541 283.16C298.354 284.92 300.461 286.28 302.861 287.24C305.314 288.2 308.007 288.68 310.941 288.68C313.874 288.68 316.594 288.147 319.101 287.08C321.607 285.96 323.874 284.28 325.901 282.04L332.621 288.44C330.007 291.48 326.807 293.8 323.021 295.4C319.234 297 315.021 297.8 310.381 297.8ZM353.786 297V241H364.186V297H353.786ZM407.893 297.8C403.519 297.8 399.333 297.187 395.333 295.96C391.333 294.68 388.159 293.053 385.813 291.08L389.413 283C391.653 284.76 394.426 286.227 397.733 287.4C401.039 288.573 404.426 289.16 407.893 289.16C410.826 289.16 413.199 288.84 415.013 288.2C416.826 287.56 418.159 286.707 419.013 285.64C419.866 284.52 420.293 283.267 420.293 281.88C420.293 280.173 419.679 278.813 418.453 277.8C417.226 276.733 415.626 275.907 413.653 275.32C411.733 274.68 409.573 274.093 407.173 273.56C404.826 273.027 402.453 272.413 400.053 271.72C397.706 270.973 395.546 270.04 393.573 268.92C391.653 267.747 390.079 266.2 388.853 264.28C387.626 262.36 387.013 259.907 387.013 256.92C387.013 253.88 387.813 251.107 389.413 248.6C391.066 246.04 393.546 244.013 396.853 242.52C400.213 240.973 404.453 240.2 409.573 240.2C412.933 240.2 416.266 240.627 419.573 241.48C422.879 242.333 425.759 243.56 428.213 245.16L424.933 253.24C422.426 251.747 419.839 250.653 417.173 249.96C414.506 249.213 411.946 248.84 409.493 248.84C406.613 248.84 404.266 249.187 402.453 249.88C400.693 250.573 399.386 251.48 398.533 252.6C397.733 253.72 397.333 255 397.333 256.44C397.333 258.147 397.919 259.533 399.093 260.6C400.319 261.613 401.893 262.413 403.813 263C405.786 263.587 407.973 264.173 410.373 264.76C412.773 265.293 415.146 265.907 417.493 266.6C419.893 267.293 422.053 268.2 423.973 269.32C425.946 270.44 427.519 271.96 428.693 273.88C429.919 275.8 430.533 278.227 430.533 281.16C430.533 284.147 429.706 286.92 428.053 289.48C426.453 291.987 423.973 294.013 420.613 295.56C417.253 297.053 413.013 297.8 407.893 297.8ZM477.965 297.8C473.698 297.8 469.725 297.107 466.045 295.72C462.418 294.28 459.245 292.28 456.525 289.72C453.858 287.107 451.778 284.04 450.285 280.52C448.792 277 448.045 273.16 448.045 269C448.045 264.84 448.792 261 450.285 257.48C451.778 253.96 453.885 250.92 456.605 248.36C459.325 245.747 462.498 243.747 466.125 242.36C469.752 240.92 473.725 240.2 478.045 240.2C482.632 240.2 486.818 241 490.605 242.6C494.392 244.147 497.592 246.467 500.205 249.56L493.485 255.88C491.458 253.693 489.192 252.067 486.685 251C484.178 249.88 481.458 249.32 478.525 249.32C475.592 249.32 472.898 249.8 470.445 250.76C468.045 251.72 465.938 253.08 464.125 254.84C462.365 256.6 460.978 258.68 459.965 261.08C459.005 263.48 458.525 266.12 458.525 269C458.525 271.88 459.005 274.52 459.965 276.92C460.978 279.32 462.365 281.4 464.125 283.16C465.938 284.92 468.045 286.28 470.445 287.24C472.898 288.2 475.592 288.68 478.525 288.68C481.458 288.68 484.178 288.147 486.685 287.08C489.192 285.96 491.458 284.28 493.485 282.04L500.205 288.44C497.592 291.48 494.392 293.8 490.605 295.4C486.818 297 482.605 297.8 477.965 297.8ZM546.438 297.8C542.065 297.8 538.038 297.08 534.358 295.64C530.678 294.2 527.478 292.2 524.758 289.64C522.038 287.027 519.931 283.987 518.438 280.52C516.945 277 516.198 273.16 516.198 269C516.198 264.84 516.945 261.027 518.438 257.56C519.931 254.04 522.038 251 524.758 248.44C527.478 245.827 530.678 243.8 534.358 242.36C538.038 240.92 542.038 240.2 546.358 240.2C550.731 240.2 554.731 240.92 558.358 242.36C562.038 243.8 565.238 245.827 567.958 248.44C570.678 251 572.785 254.04 574.278 257.56C575.771 261.027 576.518 264.84 576.518 269C576.518 273.16 575.771 277 574.278 280.52C572.785 284.04 570.678 287.08 567.958 289.64C565.238 292.2 562.038 294.2 558.358 295.64C554.731 297.08 550.758 297.8 546.438 297.8ZM546.358 288.68C549.185 288.68 551.798 288.2 554.198 287.24C556.598 286.28 558.678 284.92 560.438 283.16C562.198 281.347 563.558 279.267 564.518 276.92C565.531 274.52 566.038 271.88 566.038 269C566.038 266.12 565.531 263.507 564.518 261.16C563.558 258.76 562.198 256.68 560.438 254.92C558.678 253.107 556.598 251.72 554.198 250.76C551.798 249.8 549.185 249.32 546.358 249.32C543.531 249.32 540.918 249.8 538.518 250.76C536.171 251.72 534.091 253.107 532.278 254.92C530.518 256.68 529.131 258.76 528.118 261.16C527.158 263.507 526.678 266.12 526.678 269C526.678 271.827 527.158 274.44 528.118 276.84C529.131 279.24 530.518 281.347 532.278 283.16C534.038 284.92 536.118 286.28 538.518 287.24C540.918 288.2 543.531 288.68 546.358 288.68Z" fill="#B37132"/>
<path d="M31.44 57.8C27.1733 57.8 23.2 57.1067 19.52 55.72C15.8933 54.28 12.72 52.28 10 49.72C7.33333 47.1067 5.25333 44.04 3.76 40.52C2.26667 37 1.52 33.16 1.52 29C1.52 24.84 2.26667 21 3.76 17.48C5.25333 13.96 7.36 10.92 10.08 8.36C12.8 5.74667 15.9733 3.74667 19.6 2.36C23.2267 0.919997 27.2 0.199997 31.52 0.199997C36.1067 0.199997 40.2933 0.999998 44.08 2.6C47.8667 4.14667 51.0667 6.46666 53.68 9.56L46.96 15.88C44.9333 13.6933 42.6667 12.0667 40.16 11C37.6533 9.88 34.9333 9.32 32 9.32C29.0667 9.32 26.3733 9.8 23.92 10.76C21.52 11.72 19.4133 13.08 17.6 14.84C15.84 16.6 14.4533 18.68 13.44 21.08C12.48 23.48 12 26.12 12 29C12 31.88 12.48 34.52 13.44 36.92C14.4533 39.32 15.84 41.4 17.6 43.16C19.4133 44.92 21.52 46.28 23.92 47.24C26.3733 48.2 29.0667 48.68 32 48.68C34.9333 48.68 37.6533 48.1467 40.16 47.08C42.6667 45.96 44.9333 44.28 46.96 42.04L53.68 48.44C51.0667 51.48 47.8667 53.8 44.08 55.4C40.2933 57 36.08 57.8 31.44 57.8ZM84.445 24.28H112.285V32.84H84.445V24.28ZM85.245 48.28H116.845V57H74.845V0.999996H115.725V9.72H85.245V48.28ZM139.639 57V0.999996H148.199L183.319 44.12H179.079V0.999996H189.399V57H180.839L145.719 13.88H149.959V57H139.639ZM226.964 57V9.8H208.404V0.999996H255.924V9.8H237.364V57H226.964ZM274.929 57V0.999996H297.969C302.929 0.999996 307.169 1.8 310.689 3.4C314.263 5 317.009 7.29333 318.929 10.28C320.849 13.2667 321.809 16.8133 321.809 20.92C321.809 25.0267 320.849 28.5733 318.929 31.56C317.009 34.4933 314.263 36.76 310.689 38.36C307.169 39.9067 302.929 40.68 297.969 40.68H280.689L285.329 35.96V57H274.929ZM311.569 57L297.409 36.68H308.529L322.769 57H311.569ZM285.329 37.08L280.689 32.12H297.489C302.076 32.12 305.516 31.1333 307.809 29.16C310.156 27.1867 311.329 24.44 311.329 20.92C311.329 17.3467 310.156 14.6 307.809 12.68C305.516 10.76 302.076 9.8 297.489 9.8H280.689L285.329 4.68V37.08ZM370.885 57.8C366.512 57.8 362.485 57.08 358.805 55.64C355.125 54.2 351.925 52.2 349.205 49.64C346.485 47.0267 344.378 43.9867 342.885 40.52C341.392 37 340.645 33.16 340.645 29C340.645 24.84 341.392 21.0267 342.885 17.56C344.378 14.04 346.485 11 349.205 8.44C351.925 5.82666 355.125 3.8 358.805 2.36C362.485 0.919997 366.485 0.199997 370.805 0.199997C375.178 0.199997 379.178 0.919997 382.805 2.36C386.485 3.8 389.685 5.82666 392.405 8.44C395.125 11 397.232 14.04 398.725 17.56C400.218 21.0267 400.965 24.84 400.965 29C400.965 33.16 400.218 37 398.725 40.52C397.232 44.04 395.125 47.08 392.405 49.64C389.685 52.2 386.485 54.2 382.805 55.64C379.178 57.08 375.205 57.8 370.885 57.8ZM370.805 48.68C373.632 48.68 376.245 48.2 378.645 47.24C381.045 46.28 383.125 44.92 384.885 43.16C386.645 41.3467 388.005 39.2667 388.965 36.92C389.978 34.52 390.485 31.88 390.485 29C390.485 26.12 389.978 23.5067 388.965 21.16C388.005 18.76 386.645 16.68 384.885 14.92C383.125 13.1067 381.045 11.72 378.645 10.76C376.245 9.8 373.632 9.32 370.805 9.32C367.978 9.32 365.365 9.8 362.965 10.76C360.618 11.72 358.538 13.1067 356.725 14.92C354.965 16.68 353.578 18.76 352.565 21.16C351.605 23.5067 351.125 26.12 351.125 29C351.125 31.8267 351.605 34.44 352.565 36.84C353.578 39.24 354.965 41.3467 356.725 43.16C358.485 44.92 360.565 46.28 362.965 47.24C365.365 48.2 367.978 48.68 370.805 48.68ZM31.44 137.8C27.1733 137.8 23.2 137.107 19.52 135.72C15.8933 134.28 12.72 132.28 10 129.72C7.33333 127.107 5.25333 124.04 3.76 120.52C2.26667 117 1.52 113.16 1.52 109C1.52 104.84 2.26667 101 3.76 97.48C5.25333 93.96 7.36 90.92 10.08 88.36C12.8 85.7467 15.9733 83.7467 19.6 82.36C23.2267 80.92 27.2 80.2 31.52 80.2C36.1067 80.2 40.2933 81 44.08 82.6C47.8667 84.1467 51.0667 86.4667 53.68 89.56L46.96 95.88C44.9333 93.6933 42.6667 92.0667 40.16 91C37.6533 89.88 34.9333 89.32 32 89.32C29.0667 89.32 26.3733 89.8 23.92 90.76C21.52 91.72 19.4133 93.08 17.6 94.84C15.84 96.6 14.4533 98.68 13.44 101.08C12.48 103.48 12 106.12 12 109C12 111.88 12.48 114.52 13.44 116.92C14.4533 119.32 15.84 121.4 17.6 123.16C19.4133 124.92 21.52 126.28 23.92 127.24C26.3733 128.2 29.0667 128.68 32 128.68C34.9333 128.68 37.6533 128.147 40.16 127.08C42.6667 125.96 44.9333 124.28 46.96 122.04L53.68 128.44C51.0667 131.48 47.8667 133.8 44.08 135.4C40.2933 137 36.08 137.8 31.44 137.8ZM98.8469 137.8C91.1669 137.8 85.1402 135.64 80.7669 131.32C76.4469 127 74.2869 120.76 74.2869 112.6V81H84.6869V112.2C84.6869 117.96 85.9135 122.147 88.3669 124.76C90.8735 127.373 94.3935 128.68 98.9269 128.68C103.46 128.68 106.954 127.373 109.407 124.76C111.86 122.147 113.087 117.96 113.087 112.2V81H123.327V112.6C123.327 120.76 121.14 127 116.767 131.32C112.447 135.64 106.474 137.8 98.8469 137.8ZM149.092 137V81H159.492V128.2H188.772V137H149.092ZM214.308 137V89.8H195.748V81H243.268V89.8H224.708V137H214.308ZM285.338 137.8C277.658 137.8 271.631 135.64 267.258 131.32C262.938 127 260.778 120.76 260.778 112.6V81H271.178V112.2C271.178 117.96 272.404 122.147 274.858 124.76C277.364 127.373 280.884 128.68 285.418 128.68C289.951 128.68 293.444 127.373 295.898 124.76C298.351 122.147 299.578 117.96 299.578 112.2V81H309.818V112.6C309.818 120.76 307.631 127 303.258 131.32C298.938 135.64 292.964 137.8 285.338 137.8ZM335.583 137V81H358.623C363.583 81 367.823 81.8 371.343 83.4C374.916 85 377.663 87.2933 379.583 90.28C381.503 93.2667 382.463 96.8133 382.463 100.92C382.463 105.027 381.503 108.573 379.583 111.56C377.663 114.493 374.916 116.76 371.343 118.36C367.823 119.907 363.583 120.68 358.623 120.68H341.343L345.983 115.96V137H335.583ZM372.223 137L358.063 116.68H369.182L383.423 137H372.223ZM345.983 117.08L341.343 112.12H358.143C362.729 112.12 366.169 111.133 368.462 109.16C370.809 107.187 371.983 104.44 371.983 100.92C371.983 97.3467 370.809 94.6 368.462 92.68C366.169 90.76 362.729 89.8 358.143 89.8H341.343L345.983 84.68V117.08ZM397.378 137L422.578 81H432.818L458.098 137H447.218L425.538 86.52H429.698L408.098 137H397.378ZM408.978 124.04L411.778 115.88H442.018L444.818 124.04H408.978ZM476.42 137V81H486.82V128.2H516.1V137H476.42ZM22.88 217.8C18.5067 217.8 14.32 217.187 10.32 215.96C6.32 214.68 3.14667 213.053 0.8 211.08L4.4 203C6.64 204.76 9.41333 206.227 12.72 207.4C16.0267 208.573 19.4133 209.16 22.88 209.16C25.8133 209.16 28.1867 208.84 30 208.2C31.8133 207.56 33.1467 206.707 34 205.64C34.8533 204.52 35.28 203.267 35.28 201.88C35.28 200.173 34.6667 198.813 33.44 197.8C32.2133 196.733 30.6133 195.907 28.64 195.32C26.72 194.68 24.56 194.093 22.16 193.56C19.8133 193.027 17.44 192.413 15.04 191.72C12.6933 190.973 10.5333 190.04 8.56 188.92C6.64 187.747 5.06667 186.2 3.84 184.28C2.61333 182.36 2 179.907 2 176.92C2 173.88 2.8 171.107 4.4 168.6C6.05333 166.04 8.53333 164.013 11.84 162.52C15.2 160.973 19.44 160.2 24.56 160.2C27.92 160.2 31.2533 160.627 34.56 161.48C37.8667 162.333 40.7467 163.56 43.2 165.16L39.92 173.24C37.4133 171.747 34.8267 170.653 32.16 169.96C29.4933 169.213 26.9333 168.84 24.48 168.84C21.6 168.84 19.2533 169.187 17.44 169.88C15.68 170.573 14.3733 171.48 13.52 172.6C12.72 173.72 12.32 175 12.32 176.44C12.32 178.147 12.9067 179.533 14.08 180.6C15.3067 181.613 16.88 182.413 18.8 183C20.7733 183.587 22.96 184.173 25.36 184.76C27.76 185.293 30.1333 185.907 32.48 186.6C34.88 187.293 37.04 188.2 38.96 189.32C40.9333 190.44 42.5067 191.96 43.68 193.88C44.9067 195.8 45.52 198.227 45.52 201.16C45.52 204.147 44.6933 206.92 43.04 209.48C41.44 211.987 38.96 214.013 35.6 215.56C32.24 217.053 28 217.8 22.88 217.8ZM59.1125 217L84.3125 161H94.5525L119.833 217H108.953L87.2725 166.52H91.4325L69.8325 217H59.1125ZM70.7125 204.04L73.5125 195.88H103.753L106.553 204.04H70.7125ZM95.1925 156.44C93.9125 156.44 92.7392 156.2 91.6725 155.72C90.6592 155.187 89.7258 154.573 88.8725 153.88C88.0725 153.133 87.2992 152.493 86.5525 151.96C85.8058 151.427 85.0592 151.16 84.3125 151.16C83.1925 151.16 82.2858 151.587 81.5925 152.44C80.8992 153.293 80.4992 154.467 80.3925 155.96H75.0325C75.1392 152.653 75.9392 150.04 77.4325 148.12C78.9792 146.2 81.0592 145.24 83.6725 145.24C84.9525 145.24 86.1258 145.507 87.1925 146.04C88.2592 146.573 89.1925 147.187 89.9925 147.88C90.8458 148.573 91.6458 149.187 92.3925 149.72C93.1392 150.253 93.8592 150.52 94.5525 150.52C95.6725 150.52 96.5792 150.12 97.2725 149.32C98.0192 148.52 98.4192 147.4 98.4725 145.96H103.833C103.779 149.053 102.979 151.587 101.433 153.56C99.8858 155.48 97.8058 156.44 95.1925 156.44ZM163.613 217.8C159.24 217.8 155.213 217.08 151.533 215.64C147.853 214.2 144.653 212.2 141.933 209.64C139.213 207.027 137.106 203.987 135.613 200.52C134.12 197 133.373 193.16 133.373 189C133.373 184.84 134.12 181.027 135.613 177.56C137.106 174.04 139.213 171 141.933 168.44C144.653 165.827 147.853 163.8 151.533 162.36C155.213 160.92 159.213 160.2 163.533 160.2C167.906 160.2 171.906 160.92 175.533 162.36C179.213 163.8 182.413 165.827 185.133 168.44C187.853 171 189.96 174.04 191.453 177.56C192.946 181.027 193.693 184.84 193.693 189C193.693 193.16 192.946 197 191.453 200.52C189.96 204.04 187.853 207.08 185.133 209.64C182.413 212.2 179.213 214.2 175.533 215.64C171.906 217.08 167.933 217.8 163.613 217.8ZM163.533 208.68C166.36 208.68 168.973 208.2 171.373 207.24C173.773 206.28 175.853 204.92 177.613 203.16C179.373 201.347 180.733 199.267 181.693 196.92C182.706 194.52 183.213 191.88 183.213 189C183.213 186.12 182.706 183.507 181.693 181.16C180.733 178.76 179.373 176.68 177.613 174.92C175.853 173.107 173.773 171.72 171.373 170.76C168.973 169.8 166.36 169.32 163.533 169.32C160.706 169.32 158.093 169.8 155.693 170.76C153.346 171.72 151.266 173.107 149.453 174.92C147.693 176.68 146.306 178.76 145.293 181.16C144.333 183.507 143.853 186.12 143.853 189C143.853 191.827 144.333 194.44 145.293 196.84C146.306 199.24 147.693 201.347 149.453 203.16C151.213 204.92 153.293 206.28 155.693 207.24C158.093 208.2 160.706 208.68 163.533 208.68ZM15.04 266.76H42.96V275.56H15.04V266.76ZM15.92 297H5.52V241H46.4V249.72H15.92V297ZM67.6575 297V241H90.6975C95.6575 241 99.8975 241.8 103.418 243.4C106.991 245 109.738 247.293 111.658 250.28C113.578 253.267 114.538 256.813 114.538 260.92C114.538 265.027 113.578 268.573 111.658 271.56C109.738 274.493 106.991 276.76 103.418 278.36C99.8975 279.907 95.6575 280.68 90.6975 280.68H73.4175L78.0575 275.96V297H67.6575ZM104.298 297L90.1375 276.68H101.258L115.498 297H104.298ZM78.0575 277.08L73.4175 272.12H90.2175C94.8042 272.12 98.2442 271.133 100.538 269.16C102.884 267.187 104.058 264.44 104.058 260.92C104.058 257.347 102.884 254.6 100.538 252.68C98.2442 250.76 94.8042 249.8 90.2175 249.8H73.4175L78.0575 244.68V277.08ZM129.453 297L154.653 241H164.893L190.173 297H179.293L157.613 246.52H161.773L140.173 297H129.453ZM141.053 284.04L143.853 275.88H174.093L176.893 284.04H141.053ZM208.495 297V241H217.055L252.175 284.12H247.935V241H258.255V297H249.695L214.575 253.88H218.815V297H208.495ZM310.381 297.8C306.114 297.8 302.141 297.107 298.461 295.72C294.834 294.28 291.661 292.28 288.941 289.72C286.274 287.107 284.194 284.04 282.701 280.52C281.207 277 280.461 273.16 280.461 269C280.461 264.84 281.207 261 282.701 257.48C284.194 253.96 286.301 250.92 289.021 248.36C291.741 245.747 294.914 243.747 298.541 242.36C302.167 240.92 306.141 240.2 310.461 240.2C315.047 240.2 319.234 241 323.021 242.6C326.807 244.147 330.007 246.467 332.621 249.56L325.901 255.88C323.874 253.693 321.607 252.067 319.101 251C316.594 249.88 313.874 249.32 310.941 249.32C308.007 249.32 305.314 249.8 302.861 250.76C300.461 251.72 298.354 253.08 296.541 254.84C294.781 256.6 293.394 258.68 292.381 261.08C291.421 263.48 290.941 266.12 290.941 269C290.941 271.88 291.421 274.52 292.381 276.92C293.394 279.32 294.781 281.4 296.541 283.16C298.354 284.92 300.461 286.28 302.861 287.24C305.314 288.2 308.007 288.68 310.941 288.68C313.874 288.68 316.594 288.147 319.101 287.08C321.607 285.96 323.874 284.28 325.901 282.04L332.621 288.44C330.007 291.48 326.807 293.8 323.021 295.4C319.234 297 315.021 297.8 310.381 297.8ZM353.786 297V241H364.186V297H353.786ZM407.893 297.8C403.519 297.8 399.333 297.187 395.333 295.96C391.333 294.68 388.159 293.053 385.813 291.08L389.413 283C391.653 284.76 394.426 286.227 397.733 287.4C401.039 288.573 404.426 289.16 407.893 289.16C410.826 289.16 413.199 288.84 415.013 288.2C416.826 287.56 418.159 286.707 419.013 285.64C419.866 284.52 420.293 283.267 420.293 281.88C420.293 280.173 419.679 278.813 418.453 277.8C417.226 276.733 415.626 275.907 413.653 275.32C411.733 274.68 409.573 274.093 407.173 273.56C404.826 273.027 402.453 272.413 400.053 271.72C397.706 270.973 395.546 270.04 393.573 268.92C391.653 267.747 390.079 266.2 388.853 264.28C387.626 262.36 387.013 259.907 387.013 256.92C387.013 253.88 387.813 251.107 389.413 248.6C391.066 246.04 393.546 244.013 396.853 242.52C400.213 240.973 404.453 240.2 409.573 240.2C412.933 240.2 416.266 240.627 419.573 241.48C422.879 242.333 425.759 243.56 428.213 245.16L424.933 253.24C422.426 251.747 419.839 250.653 417.173 249.96C414.506 249.213 411.946 248.84 409.493 248.84C406.613 248.84 404.266 249.187 402.453 249.88C400.693 250.573 399.386 251.48 398.533 252.6C397.733 253.72 397.333 255 397.333 256.44C397.333 258.147 397.919 259.533 399.093 260.6C400.319 261.613 401.893 262.413 403.813 263C405.786 263.587 407.973 264.173 410.373 264.76C412.773 265.293 415.146 265.907 417.493 266.6C419.893 267.293 422.053 268.2 423.973 269.32C425.946 270.44 427.519 271.96 428.693 273.88C429.919 275.8 430.533 278.227 430.533 281.16C430.533 284.147 429.706 286.92 428.053 289.48C426.453 291.987 423.973 294.013 420.613 295.56C417.253 297.053 413.013 297.8 407.893 297.8ZM477.965 297.8C473.698 297.8 469.725 297.107 466.045 295.72C462.418 294.28 459.245 292.28 456.525 289.72C453.858 287.107 451.778 284.04 450.285 280.52C448.792 277 448.045 273.16 448.045 269C448.045 264.84 448.792 261 450.285 257.48C451.778 253.96 453.885 250.92 456.605 248.36C459.325 245.747 462.498 243.747 466.125 242.36C469.752 240.92 473.725 240.2 478.045 240.2C482.632 240.2 486.818 241 490.605 242.6C494.392 244.147 497.592 246.467 500.205 249.56L493.485 255.88C491.458 253.693 489.192 252.067 486.685 251C484.178 249.88 481.458 249.32 478.525 249.32C475.592 249.32 472.898 249.8 470.445 250.76C468.045 251.72 465.938 253.08 464.125 254.84C462.365 256.6 460.978 258.68 459.965 261.08C459.005 263.48 458.525 266.12 458.525 269C458.525 271.88 459.005 274.52 459.965 276.92C460.978 279.32 462.365 281.4 464.125 283.16C465.938 284.92 468.045 286.28 470.445 287.24C472.898 288.2 475.592 288.68 478.525 288.68C481.458 288.68 484.178 288.147 486.685 287.08C489.192 285.96 491.458 284.28 493.485 282.04L500.205 288.44C497.592 291.48 494.392 293.8 490.605 295.4C486.818 297 482.605 297.8 477.965 297.8ZM546.438 297.8C542.065 297.8 538.038 297.08 534.358 295.64C530.678 294.2 527.478 292.2 524.758 289.64C522.038 287.027 519.931 283.987 518.438 280.52C516.945 277 516.198 273.16 516.198 269C516.198 264.84 516.945 261.027 518.438 257.56C519.931 254.04 522.038 251 524.758 248.44C527.478 245.827 530.678 243.8 534.358 242.36C538.038 240.92 542.038 240.2 546.358 240.2C550.731 240.2 554.731 240.92 558.358 242.36C562.038 243.8 565.238 245.827 567.958 248.44C570.678 251 572.785 254.04 574.278 257.56C575.771 261.027 576.518 264.84 576.518 269C576.518 273.16 575.771 277 574.278 280.52C572.785 284.04 570.678 287.08 567.958 289.64C565.238 292.2 562.038 294.2 558.358 295.64C554.731 297.08 550.758 297.8 546.438 297.8ZM546.358 288.68C549.185 288.68 551.798 288.2 554.198 287.24C556.598 286.28 558.678 284.92 560.438 283.16C562.198 281.347 563.558 279.267 564.518 276.92C565.531 274.52 566.038 271.88 566.038 269C566.038 266.12 565.531 263.507 564.518 261.16C563.558 258.76 562.198 256.68 560.438 254.92C558.678 253.107 556.598 251.72 554.198 250.76C551.798 249.8 549.185 249.32 546.358 249.32C543.531 249.32 540.918 249.8 538.518 250.76C536.171 251.72 534.091 253.107 532.278 254.92C530.518 256.68 529.131 258.76 528.118 261.16C527.158 263.507 526.678 266.12 526.678 269C526.678 271.827 527.158 274.44 528.118 276.84C529.131 279.24 530.518 281.347 532.278 283.16C534.038 284.92 536.118 286.28 538.518 287.24C540.918 288.2 543.531 288.68 546.358 288.68Z" fill="#B37132"/>
</svg>
